<?xml version="1.0" encoding="UTF-8" standalone="no"?>
<!DOCTYPE svg PUBLIC "-//W3C//DTD SVG 1.1//EN"
 "http://www.w3.org/Graphics/SVG/1.1/DTD/svg11.dtd">
<!-- Generated by graphviz version 2.40.1 (20161225.0304)
 -->
<!-- Title: binaryTree Pages: 1 -->
<svg width="208pt" height="447pt"
 viewBox="0.00 0.00 208.29 446.68" xmlns="http://www.w3.org/2000/svg" xmlns:xlink="http://www.w3.org/1999/xlink">
<g id="graph0" class="graph" transform="scale(1 1) rotate(0) translate(4 442.6789)">
<title>binaryTree</title>
<polygon fill="#ffffff" stroke="transparent" points="-4,4 -4,-442.6789 204.2909,-442.6789 204.2909,4 -4,4"/>
<!-- root -->
<g id="node1" class="node">
<title>root</title>
<ellipse fill="none" stroke="#0000ff" cx="146.8117" cy="-419.3711" rx="19.1174" ry="19.1174"/>
<text text-anchor="middle" x="146.8117" y="-416.3711" font-family="Times,serif" font-size="10.00" fill="#000000">root</text>
</g>
<!-- node1 -->
<g id="node2" class="node">
<title>node1</title>
<ellipse fill="none" stroke="#ff0000" cx="114.8117" cy="-322.9459" rx="24.1364" ry="24.1364"/>
<text text-anchor="middle" x="114.8117" y="-319.9459" font-family="Times,serif" font-size="10.00" fill="#0000ff">node1</text>
</g>
<!-- root&#45;&gt;node1 -->
<g id="edge1" class="edge">
<title>root&#45;&gt;node1</title>
<path fill="none" stroke="#000000" d="M140.6418,-400.7794C136.4509,-388.1512 130.7911,-371.0964 125.8376,-356.17"/>
<polygon fill="#000000" stroke="#000000" points="129.0194,-354.6456 122.5478,-346.257 122.3757,-356.8504 129.0194,-354.6456"/>
<text text-anchor="middle" x="137.3117" y="-369.4634" font-family="Times,serif" font-size="14.00" fill="#000000">1</text>
</g>
<!-- A类 -->
<g id="node3" class="node">
<title>A类</title>
<ellipse fill="none" stroke="#ff0000" cx="178.8117" cy="-322.9459" rx="21.4584" ry="21.4584"/>
<text text-anchor="middle" x="178.8117" y="-319.9459" font-family="Times,serif" font-size="10.00" fill="#0000ff">A类</text>
</g>
<!-- root&#45;&gt;A类 -->
<g id="edge2" class="edge">
<title>root&#45;&gt;A类</title>
<path fill="none" stroke="#000000" d="M152.9816,-400.7794C157.4511,-387.3115 163.5915,-368.8087 168.764,-353.2226"/>
<polygon fill="#000000" stroke="#000000" points="172.168,-354.0771 171.9959,-343.4837 165.5243,-351.8723 172.168,-354.0771"/>
<text text-anchor="middle" x="168.3117" y="-369.4634" font-family="Times,serif" font-size="14.00" fill="#000000">0</text>
</g>
<!-- node2 -->
<g id="node4" class="node">
<title>node2</title>
<ellipse fill="none" stroke="#ff0000" cx="82.8117" cy="-221.5109" rx="24.1364" ry="24.1364"/>
<text text-anchor="middle" x="82.8117" y="-218.5109" font-family="Times,serif" font-size="10.00" fill="#0000ff">node2</text>
</g>
<!-- node1&#45;&gt;node2 -->
<g id="edge3" class="edge">
<title>node1&#45;&gt;node2</title>
<path fill="none" stroke="#000000" d="M107.4703,-299.6746C103.2724,-286.3681 97.9366,-269.4545 93.3029,-254.7664"/>
<polygon fill="#000000" stroke="#000000" points="96.5763,-253.5088 90.2298,-245.0251 89.9006,-255.6148 96.5763,-253.5088"/>
<text text-anchor="middle" x="104.3117" y="-268.0284" font-family="Times,serif" font-size="14.00" fill="#000000">1</text>
</g>
<!-- B类 -->
<g id="node5" class="node">
<title>B类</title>
<ellipse fill="none" stroke="#ff0000" cx="145.8117" cy="-221.5109" rx="21.2979" ry="21.2979"/>
<text text-anchor="middle" x="145.8117" y="-218.5109" font-family="Times,serif" font-size="10.00" fill="#0000ff">B类</text>
</g>
<!-- node1&#45;&gt;B类 -->
<g id="edge4" class="edge">
<title>node1&#45;&gt;B类</title>
<path fill="none" stroke="#000000" d="M121.9237,-299.6746C126.2934,-285.3765 131.936,-266.9136 136.6398,-251.5223"/>
<polygon fill="#000000" stroke="#000000" points="139.9969,-252.5125 139.5725,-241.9262 133.3025,-250.4666 139.9969,-252.5125"/>
<text text-anchor="middle" x="136.3117" y="-268.0284" font-family="Times,serif" font-size="14.00" fill="#000000">0</text>
</g>
<!-- node3 -->
<g id="node6" class="node">
<title>node3</title>
<ellipse fill="none" stroke="#ff0000" cx="50.8117" cy="-120.0759" rx="24.1364" ry="24.1364"/>
<text text-anchor="middle" x="50.8117" y="-117.0759" font-family="Times,serif" font-size="10.00" fill="#0000ff">node3</text>
</g>
<!-- node2&#45;&gt;node3 -->
<g id="edge5" class="edge">
<title>node2&#45;&gt;node3</title>
<path fill="none" stroke="#000000" d="M75.4703,-198.2396C71.2724,-184.9331 65.9366,-168.0195 61.3029,-153.3314"/>
<polygon fill="#000000" stroke="#000000" points="64.5763,-152.0738 58.2298,-143.5901 57.9006,-154.1798 64.5763,-152.0738"/>
<text text-anchor="middle" x="72.3117" y="-166.5934" font-family="Times,serif" font-size="14.00" fill="#000000">1</text>
</g>
<!-- C类 -->
<g id="node7" class="node">
<title>C类</title>
<ellipse fill="none" stroke="#ff0000" cx="113.8117" cy="-120.0759" rx="21.2979" ry="21.2979"/>
<text text-anchor="middle" x="113.8117" y="-117.0759" font-family="Times,serif" font-size="10.00" fill="#0000ff">C类</text>
</g>
<!-- node2&#45;&gt;C类 -->
<g id="edge6" class="edge">
<title>node2&#45;&gt;C类</title>
<path fill="none" stroke="#000000" d="M89.9237,-198.2396C94.2934,-183.9415 99.936,-165.4786 104.6398,-150.0873"/>
<polygon fill="#000000" stroke="#000000" points="107.9969,-151.0775 107.5725,-140.4912 101.3025,-149.0316 107.9969,-151.0775"/>
<text text-anchor="middle" x="104.3117" y="-166.5934" font-family="Times,serif" font-size="14.00" fill="#000000">0</text>
</g>
<!-- E类 -->
<g id="node8" class="node">
<title>E类</title>
<ellipse fill="none" stroke="#ff0000" cx="20.8117" cy="-21.4792" rx="20.6251" ry="20.6251"/>
<text text-anchor="middle" x="20.8117" y="-18.4792" font-family="Times,serif" font-size="10.00" fill="#0000ff">E类</text>
</g>
<!-- node3&#45;&gt;E类 -->
<g id="edge7" class="edge">
<title>node3&#45;&gt;E类</title>
<path fill="none" stroke="#000000" d="M43.7021,-96.7098C39.5631,-83.1068 34.3037,-65.8213 29.8702,-51.2504"/>
<polygon fill="#000000" stroke="#000000" points="33.2162,-50.2233 26.9567,-41.6752 26.5193,-52.261 33.2162,-50.2233"/>
<text text-anchor="middle" x="41.3117" y="-65.1584" font-family="Times,serif" font-size="14.00" fill="#000000">1</text>
</g>
<!-- D类 -->
<g id="node9" class="node">
<title>D类</title>
<ellipse fill="none" stroke="#ff0000" cx="80.8117" cy="-21.4792" rx="21.4584" ry="21.4584"/>
<text text-anchor="middle" x="80.8117" y="-18.4792" font-family="Times,serif" font-size="10.00" fill="#0000ff">D类</text>
</g>
<!-- node3&#45;&gt;D类 -->
<g id="edge8" class="edge">
<title>node3&#45;&gt;D类</title>
<path fill="none" stroke="#000000" d="M57.9213,-96.7098C61.9647,-83.4209 67.0774,-66.6176 71.4448,-52.264"/>
<polygon fill="#000000" stroke="#000000" points="74.9047,-52.9164 74.4672,-42.3306 68.2078,-50.8787 74.9047,-52.9164"/>
<text text-anchor="middle" x="72.3117" y="-65.1584" font-family="Times,serif" font-size="14.00" fill="#000000">0</text>
</g>
</g>
</svg>
